<svg xmlns="http://www.w3.org/2000/svg" xmlns:xlink="http://www.w3.org/1999/xlink" width="500" zoomAndPan="magnify" viewBox="0 0 375 187.499995" height="250" preserveAspectRatio="xMidYMid meet" version="1.0"><defs><g/><clipPath id="8170868385"><path d="M 0.351562 0.585938 L 233.964844 0.585938 L 233.964844 46 L 0.351562 46 Z M 0.351562 0.585938 " clip-rule="nonzero"/></clipPath><clipPath id="d0c1c446ff"><path d="M 115 0.585938 L 159 0.585938 L 159 37 L 115 37 Z M 115 0.585938 " clip-rule="nonzero"/></clipPath><clipPath id="2774c44a21"><rect x="0" width="234" y="0" height="46"/></clipPath><clipPath id="c1ef9f7ca8"><path d="M 56 38 L 188 38 L 188 59.707031 L 56 59.707031 Z M 56 38 " clip-rule="nonzero"/></clipPath><clipPath id="0ff1741b38"><rect x="0" width="132" y="0" height="22"/></clipPath><clipPath id="96b97c60c6"><rect x="0" width="234" y="0" height="60"/></clipPath></defs><g transform="matrix(1, 0, 0, 1, 71, 65)"><g clip-path="url(#96b97c60c6)"><g clip-path="url(#8170868385)"><g transform="matrix(1, 0, 0, 1, -0.000000000000014211, -0.000000000000014211)"><g clip-path="url(#2774c44a21)"><g fill="#000000" fill-opacity="1"><g transform="translate(1.438133, 35.748765)"><g><path d="M 8.53125 -18.078125 L 26.96875 -18.078125 L 26.96875 -30.703125 C 26.96875 -31.878906 26.78125 -32.738281 26.40625 -33.28125 C 26.039062 -33.832031 25.664062 -34.191406 25.28125 -34.359375 C 24.894531 -34.523438 24.65625 -34.609375 24.5625 -34.609375 L 24.5625 -34.65625 L 33.40625 -34.65625 L 33.40625 -34.609375 C 33.34375 -34.609375 33.101562 -34.523438 32.6875 -34.359375 C 32.28125 -34.191406 31.890625 -33.832031 31.515625 -33.28125 C 31.148438 -32.738281 30.96875 -31.878906 30.96875 -30.703125 L 30.96875 -3.953125 C 30.96875 -2.765625 31.148438 -1.894531 31.515625 -1.34375 C 31.890625 -0.800781 32.28125 -0.445312 32.6875 -0.28125 C 33.101562 -0.125 33.34375 -0.046875 33.40625 -0.046875 L 33.40625 0 L 24.5625 0 L 24.5625 -0.046875 C 24.65625 -0.046875 24.894531 -0.125 25.28125 -0.28125 C 25.664062 -0.445312 26.039062 -0.800781 26.40625 -1.34375 C 26.78125 -1.894531 26.96875 -2.765625 26.96875 -3.953125 L 26.96875 -17.453125 L 8.53125 -17.453125 L 8.53125 -3.953125 C 8.53125 -2.765625 8.710938 -1.894531 9.078125 -1.34375 C 9.453125 -0.800781 9.835938 -0.445312 10.234375 -0.28125 C 10.640625 -0.125 10.867188 -0.046875 10.921875 -0.046875 L 10.921875 0 L 2.125 0 L 2.125 -0.046875 C 2.21875 -0.046875 2.457031 -0.125 2.84375 -0.28125 C 3.226562 -0.445312 3.601562 -0.800781 3.96875 -1.34375 C 4.34375 -1.894531 4.53125 -2.765625 4.53125 -3.953125 L 4.53125 -30.703125 C 4.53125 -31.878906 4.34375 -32.738281 3.96875 -33.28125 C 3.601562 -33.832031 3.226562 -34.191406 2.84375 -34.359375 C 2.457031 -34.523438 2.21875 -34.609375 2.125 -34.609375 L 2.125 -34.65625 L 10.921875 -34.65625 L 10.921875 -34.609375 C 10.867188 -34.609375 10.640625 -34.523438 10.234375 -34.359375 C 9.835938 -34.191406 9.453125 -33.832031 9.078125 -33.28125 C 8.710938 -32.738281 8.53125 -31.878906 8.53125 -30.703125 Z M 8.53125 -18.078125 "/></g></g></g><g fill="#000000" fill-opacity="1"><g transform="translate(36.794248, 35.748765)"><g><path d="M 13.375 0.4375 C 11.15625 0.4375 9.28125 0.0664062 7.75 -0.671875 C 6.226562 -1.410156 5 -2.382812 4.0625 -3.59375 C 3.132812 -4.8125 2.453125 -6.148438 2.015625 -7.609375 C 1.585938 -9.078125 1.375 -10.539062 1.375 -12 C 1.375 -14.476562 1.851562 -16.769531 2.8125 -18.875 C 3.78125 -20.976562 5.226562 -22.671875 7.15625 -23.953125 C 9.082031 -25.242188 11.476562 -25.890625 14.34375 -25.890625 C 16.269531 -25.890625 17.867188 -25.5625 19.140625 -24.90625 C 20.421875 -24.257812 21.378906 -23.414062 22.015625 -22.375 C 22.648438 -21.34375 22.96875 -20.265625 22.96875 -19.140625 C 22.96875 -17.304688 22.234375 -15.90625 20.765625 -14.9375 C 19.296875 -13.976562 17.242188 -13.320312 14.609375 -12.96875 C 11.972656 -12.613281 8.910156 -12.4375 5.421875 -12.4375 C 5.484375 -10.039062 5.894531 -7.96875 6.65625 -6.21875 C 7.425781 -4.46875 8.492188 -3.117188 9.859375 -2.171875 C 11.222656 -1.222656 12.796875 -0.75 14.578125 -0.75 C 16.203125 -0.75 17.550781 -1.007812 18.625 -1.53125 C 19.707031 -2.050781 20.566406 -2.65625 21.203125 -3.34375 C 21.847656 -4.039062 22.300781 -4.671875 22.5625 -5.234375 L 22.609375 -5.203125 C 22.460938 -4.722656 22.1875 -4.15625 21.78125 -3.5 C 21.382812 -2.851562 20.820312 -2.234375 20.09375 -1.640625 C 19.375 -1.046875 18.460938 -0.550781 17.359375 -0.15625 C 16.265625 0.238281 14.9375 0.4375 13.375 0.4375 Z M 5.375 -13.0625 C 8.8125 -13.0625 11.566406 -13.359375 13.640625 -13.953125 C 15.710938 -14.546875 17.210938 -15.359375 18.140625 -16.390625 C 19.078125 -17.429688 19.546875 -18.585938 19.546875 -19.859375 C 19.546875 -21.429688 19.070312 -22.710938 18.125 -23.703125 C 17.175781 -24.691406 15.914062 -25.1875 14.34375 -25.1875 C 12.65625 -25.1875 11.148438 -24.679688 9.828125 -23.671875 C 8.515625 -22.671875 7.472656 -21.257812 6.703125 -19.4375 C 5.929688 -17.613281 5.488281 -15.488281 5.375 -13.0625 Z M 5.375 -13.0625 "/></g></g></g><g fill="#000000" fill-opacity="1"><g transform="translate(62.067645, 35.748765)"><g><path d="M 11.640625 -24.515625 C 10.097656 -24.515625 8.679688 -24.195312 7.390625 -23.5625 C 6.109375 -22.925781 5.054688 -22.113281 4.234375 -21.125 C 3.421875 -20.132812 2.925781 -19.101562 2.75 -18.03125 L 2.578125 -18.171875 C 2.640625 -19.328125 3.078125 -20.488281 3.890625 -21.65625 C 4.703125 -22.820312 5.851562 -23.789062 7.34375 -24.5625 C 8.84375 -25.332031 10.644531 -25.71875 12.75 -25.71875 C 14.113281 -25.71875 15.46875 -25.554688 16.8125 -25.234375 C 18.15625 -24.910156 19.289062 -24.332031 20.21875 -23.5 C 21.664062 -22.195312 22.390625 -20.316406 22.390625 -17.859375 L 22.390625 -3.421875 C 22.390625 -2.410156 22.550781 -1.660156 22.875 -1.171875 C 23.195312 -0.679688 23.53125 -0.367188 23.875 -0.234375 C 24.21875 -0.109375 24.414062 -0.046875 24.46875 -0.046875 L 24.46875 0 L 18.484375 0 L 18.484375 -5.90625 C 17.972656 -4.84375 17.257812 -3.835938 16.34375 -2.890625 C 15.425781 -1.941406 14.320312 -1.175781 13.03125 -0.59375 C 11.75 -0.0195312 10.289062 0.265625 8.65625 0.265625 C 6.9375 0.265625 5.535156 0 4.453125 -0.53125 C 3.378906 -1.0625 2.597656 -1.765625 2.109375 -2.640625 C 1.617188 -3.515625 1.375 -4.472656 1.375 -5.515625 C 1.375 -7.347656 2.023438 -8.988281 3.328125 -10.4375 C 4.628906 -11.882812 6.550781 -13.046875 9.09375 -13.921875 C 11.644531 -14.796875 14.773438 -15.25 18.484375 -15.28125 L 18.484375 -17.28125 C 18.484375 -19.238281 18.066406 -20.789062 17.234375 -21.9375 C 16.671875 -22.800781 15.894531 -23.445312 14.90625 -23.875 C 13.914062 -24.300781 12.828125 -24.515625 11.640625 -24.515625 Z M 5.421875 -6.046875 C 5.421875 -4.765625 5.796875 -3.628906 6.546875 -2.640625 C 7.304688 -1.648438 8.484375 -1.15625 10.078125 -1.15625 C 11.472656 -1.15625 12.75 -1.460938 13.90625 -2.078125 C 15.0625 -2.703125 16.035156 -3.476562 16.828125 -4.40625 C 17.628906 -5.34375 18.179688 -6.257812 18.484375 -7.15625 L 18.484375 -14.65625 C 15.929688 -14.625 13.8125 -14.316406 12.125 -13.734375 C 10.4375 -13.160156 9.101562 -12.4375 8.125 -11.5625 C 7.144531 -10.695312 6.445312 -9.773438 6.03125 -8.796875 C 5.625 -7.816406 5.421875 -6.898438 5.421875 -6.046875 Z M 5.421875 -6.046875 "/></g></g></g><g fill="#000000" fill-opacity="1"><g transform="translate(88.80683, 35.748765)"><g><path d="M 7.0625 -5.6875 C 7.0625 -4.082031 7.378906 -2.894531 8.015625 -2.125 C 8.648438 -1.363281 9.515625 -0.96875 10.609375 -0.9375 C 11.410156 -0.9375 12.144531 -1.101562 12.8125 -1.4375 C 13.476562 -1.78125 14.046875 -2.195312 14.515625 -2.6875 C 14.992188 -3.175781 15.320312 -3.597656 15.5 -3.953125 L 15.546875 -3.953125 C 15.398438 -3.535156 15.066406 -2.976562 14.546875 -2.28125 C 14.023438 -1.59375 13.3125 -0.976562 12.40625 -0.4375 C 11.507812 0.09375 10.378906 0.359375 9.015625 0.359375 C 8.097656 0.359375 7.179688 0.195312 6.265625 -0.125 C 5.347656 -0.457031 4.59375 -1.035156 4 -1.859375 C 3.40625 -2.691406 3.109375 -3.878906 3.109375 -5.421875 L 3.109375 -24.828125 L 1.109375 -24.828125 L 1.109375 -25.453125 L 3.109375 -25.453125 L 3.109375 -31.765625 L 7.0625 -31.765625 L 7.0625 -25.453125 L 14.875 -25.453125 L 14.875 -24.828125 L 7.0625 -24.828125 Z M 7.0625 -5.6875 "/></g></g></g><g fill="#000000" fill-opacity="1"><g transform="translate(105.418876, 35.748765)"><g/></g></g><g clip-path="url(#d0c1c446ff)"><g fill="#000000" fill-opacity="1"><g transform="translate(116.656433, 35.748765)"><g><path d="M 2.578125 -29.984375 C 2.273438 -31.378906 1.859375 -32.398438 1.328125 -33.046875 C 0.796875 -33.703125 0.3125 -34.125 -0.125 -34.3125 C -0.570312 -34.507812 -0.84375 -34.609375 -0.9375 -34.609375 L -0.9375 -34.65625 L 7.0625 -34.65625 L 7.0625 -34.609375 C 7.03125 -34.609375 6.910156 -34.523438 6.703125 -34.359375 C 6.492188 -34.191406 6.320312 -33.847656 6.1875 -33.328125 C 6.0625 -32.816406 6.117188 -32 6.359375 -30.875 L 11.59375 -7.375 L 21.9375 -34.921875 L 32.203125 -7.421875 L 37.765625 -30.609375 C 38.054688 -31.796875 38.128906 -32.671875 37.984375 -33.234375 C 37.835938 -33.796875 37.632812 -34.164062 37.375 -34.34375 C 37.125 -34.519531 36.984375 -34.609375 36.953125 -34.609375 L 36.953125 -34.65625 L 42.25 -34.65625 L 42.25 -34.609375 C 42.15625 -34.609375 41.847656 -34.507812 41.328125 -34.3125 C 40.816406 -34.125 40.269531 -33.707031 39.6875 -33.0625 C 39.113281 -32.425781 38.664062 -31.445312 38.34375 -30.125 L 30.96875 0.265625 L 20.171875 -28.5625 L 9.28125 0.265625 Z M 2.578125 -29.984375 "/></g></g></g></g><g fill="#000000" fill-opacity="1"><g transform="translate(156.942881, 35.748765)"><g><path d="M 11.640625 -24.515625 C 10.097656 -24.515625 8.679688 -24.195312 7.390625 -23.5625 C 6.109375 -22.925781 5.054688 -22.113281 4.234375 -21.125 C 3.421875 -20.132812 2.925781 -19.101562 2.75 -18.03125 L 2.578125 -18.171875 C 2.640625 -19.328125 3.078125 -20.488281 3.890625 -21.65625 C 4.703125 -22.820312 5.851562 -23.789062 7.34375 -24.5625 C 8.84375 -25.332031 10.644531 -25.71875 12.75 -25.71875 C 14.113281 -25.71875 15.46875 -25.554688 16.8125 -25.234375 C 18.15625 -24.910156 19.289062 -24.332031 20.21875 -23.5 C 21.664062 -22.195312 22.390625 -20.316406 22.390625 -17.859375 L 22.390625 -3.421875 C 22.390625 -2.410156 22.550781 -1.660156 22.875 -1.171875 C 23.195312 -0.679688 23.53125 -0.367188 23.875 -0.234375 C 24.21875 -0.109375 24.414062 -0.046875 24.46875 -0.046875 L 24.46875 0 L 18.484375 0 L 18.484375 -5.90625 C 17.972656 -4.84375 17.257812 -3.835938 16.34375 -2.890625 C 15.425781 -1.941406 14.320312 -1.175781 13.03125 -0.59375 C 11.75 -0.0195312 10.289062 0.265625 8.65625 0.265625 C 6.9375 0.265625 5.535156 0 4.453125 -0.53125 C 3.378906 -1.0625 2.597656 -1.765625 2.109375 -2.640625 C 1.617188 -3.515625 1.375 -4.472656 1.375 -5.515625 C 1.375 -7.347656 2.023438 -8.988281 3.328125 -10.4375 C 4.628906 -11.882812 6.550781 -13.046875 9.09375 -13.921875 C 11.644531 -14.796875 14.773438 -15.25 18.484375 -15.28125 L 18.484375 -17.28125 C 18.484375 -19.238281 18.066406 -20.789062 17.234375 -21.9375 C 16.671875 -22.800781 15.894531 -23.445312 14.90625 -23.875 C 13.914062 -24.300781 12.828125 -24.515625 11.640625 -24.515625 Z M 5.421875 -6.046875 C 5.421875 -4.765625 5.796875 -3.628906 6.546875 -2.640625 C 7.304688 -1.648438 8.484375 -1.15625 10.078125 -1.15625 C 11.472656 -1.15625 12.75 -1.460938 13.90625 -2.078125 C 15.0625 -2.703125 16.035156 -3.476562 16.828125 -4.40625 C 17.628906 -5.34375 18.179688 -6.257812 18.484375 -7.15625 L 18.484375 -14.65625 C 15.929688 -14.625 13.8125 -14.316406 12.125 -13.734375 C 10.4375 -13.160156 9.101562 -12.4375 8.125 -11.5625 C 7.144531 -10.695312 6.445312 -9.773438 6.03125 -8.796875 C 5.625 -7.816406 5.421875 -6.898438 5.421875 -6.046875 Z M 5.421875 -6.046875 "/></g></g></g><g fill="#000000" fill-opacity="1"><g transform="translate(183.682066, 35.748765)"><g><path d="M 1.6875 -21.5 C 1.21875 -22.59375 0.6875 -23.410156 0.09375 -23.953125 C -0.5 -24.503906 -1.023438 -24.875 -1.484375 -25.0625 C -1.941406 -25.257812 -2.234375 -25.359375 -2.359375 -25.359375 L -2.359375 -25.453125 L 5.59375 -25.453125 L 5.59375 -25.40625 C 5.59375 -25.40625 5.503906 -25.335938 5.328125 -25.203125 C 5.148438 -25.078125 5.03125 -24.804688 4.96875 -24.390625 C 4.914062 -23.972656 5.066406 -23.363281 5.421875 -22.5625 L 13.109375 -5.28125 L 20.296875 -22.5625 C 20.648438 -23.394531 20.796875 -24.007812 20.734375 -24.40625 C 20.679688 -24.8125 20.566406 -25.078125 20.390625 -25.203125 C 20.210938 -25.335938 20.109375 -25.40625 20.078125 -25.40625 L 20.078125 -25.453125 L 24.75 -25.453125 L 24.75 -25.359375 C 24.65625 -25.359375 24.351562 -25.269531 23.84375 -25.09375 C 23.34375 -24.914062 22.789062 -24.550781 22.1875 -24 C 21.582031 -23.457031 21.039062 -22.640625 20.5625 -21.546875 L 11.421875 0.40625 Z M 1.6875 -21.5 "/></g></g></g><g fill="#000000" fill-opacity="1"><g transform="translate(207.001099, 35.748765)"><g><path d="M 13.375 0.4375 C 11.15625 0.4375 9.28125 0.0664062 7.75 -0.671875 C 6.226562 -1.410156 5 -2.382812 4.0625 -3.59375 C 3.132812 -4.8125 2.453125 -6.148438 2.015625 -7.609375 C 1.585938 -9.078125 1.375 -10.539062 1.375 -12 C 1.375 -14.476562 1.851562 -16.769531 2.8125 -18.875 C 3.78125 -20.976562 5.226562 -22.671875 7.15625 -23.953125 C 9.082031 -25.242188 11.476562 -25.890625 14.34375 -25.890625 C 16.269531 -25.890625 17.867188 -25.5625 19.140625 -24.90625 C 20.421875 -24.257812 21.378906 -23.414062 22.015625 -22.375 C 22.648438 -21.34375 22.96875 -20.265625 22.96875 -19.140625 C 22.96875 -17.304688 22.234375 -15.90625 20.765625 -14.9375 C 19.296875 -13.976562 17.242188 -13.320312 14.609375 -12.96875 C 11.972656 -12.613281 8.910156 -12.4375 5.421875 -12.4375 C 5.484375 -10.039062 5.894531 -7.96875 6.65625 -6.21875 C 7.425781 -4.46875 8.492188 -3.117188 9.859375 -2.171875 C 11.222656 -1.222656 12.796875 -0.75 14.578125 -0.75 C 16.203125 -0.75 17.550781 -1.007812 18.625 -1.53125 C 19.707031 -2.050781 20.566406 -2.65625 21.203125 -3.34375 C 21.847656 -4.039062 22.300781 -4.671875 22.5625 -5.234375 L 22.609375 -5.203125 C 22.460938 -4.722656 22.1875 -4.15625 21.78125 -3.5 C 21.382812 -2.851562 20.820312 -2.234375 20.09375 -1.640625 C 19.375 -1.046875 18.460938 -0.550781 17.359375 -0.15625 C 16.265625 0.238281 14.9375 0.4375 13.375 0.4375 Z M 5.375 -13.0625 C 8.8125 -13.0625 11.566406 -13.359375 13.640625 -13.953125 C 15.710938 -14.546875 17.210938 -15.359375 18.140625 -16.390625 C 19.078125 -17.429688 19.546875 -18.585938 19.546875 -19.859375 C 19.546875 -21.429688 19.070312 -22.710938 18.125 -23.703125 C 17.175781 -24.691406 15.914062 -25.1875 14.34375 -25.1875 C 12.65625 -25.1875 11.148438 -24.679688 9.828125 -23.671875 C 8.515625 -22.671875 7.472656 -21.257812 6.703125 -19.4375 C 5.929688 -17.613281 5.488281 -15.488281 5.375 -13.0625 Z M 5.375 -13.0625 "/></g></g></g></g></g></g><g clip-path="url(#c1ef9f7ca8)"><g transform="matrix(1, 0, 0, 1, 56, 38)"><g clip-path="url(#0ff1741b38)"><g fill="#000000" fill-opacity="1"><g transform="translate(0.656791, 16.033334)"><g><path d="M 12.234375 -11.8125 L 12.234375 0 L 9.5 0 L 9.5 -4.84375 L 4.140625 -4.84375 L 4.140625 0 L 1.40625 0 L 1.40625 -11.8125 L 4.140625 -11.8125 L 4.140625 -7.15625 L 9.5 -7.15625 L 9.5 -11.8125 Z M 12.234375 -11.8125 "/></g></g></g><g fill="#000000" fill-opacity="1"><g transform="translate(24.013617, 16.033334)"><g><path d="M 10.546875 -2.1875 L 10.546875 0 L 1.40625 0 L 1.40625 -11.8125 L 10.328125 -11.8125 L 10.328125 -9.625 L 4.125 -9.625 L 4.125 -7.046875 L 9.609375 -7.046875 L 9.609375 -4.921875 L 4.125 -4.921875 L 4.125 -2.1875 Z M 10.546875 -2.1875 "/></g></g></g><g fill="#000000" fill-opacity="1"><g transform="translate(45.058379, 16.033334)"><g><path d="M 9.1875 -2.53125 L 3.703125 -2.53125 L 2.65625 0 L -0.15625 0 L 5.109375 -11.8125 L 7.8125 -11.8125 L 13.09375 0 L 10.21875 0 Z M 8.3125 -4.609375 L 6.453125 -9.125 L 4.578125 -4.609375 Z M 8.3125 -4.609375 "/></g></g></g><g fill="#000000" fill-opacity="1"><g transform="translate(67.706385, 16.033334)"><g><path d="M 1.40625 -11.8125 L 4.140625 -11.8125 L 4.140625 -2.234375 L 10.0625 -2.234375 L 10.0625 0 L 1.40625 0 Z M 1.40625 -11.8125 "/></g></g></g><g fill="#000000" fill-opacity="1"><g transform="translate(86.52346, 16.033334)"><g><path d="M 3.84375 -9.578125 L 0.0625 -9.578125 L 0.0625 -11.8125 L 10.359375 -11.8125 L 10.359375 -9.578125 L 6.578125 -9.578125 L 6.578125 0 L 3.84375 0 Z M 3.84375 -9.578125 "/></g></g></g><g fill="#000000" fill-opacity="1"><g transform="translate(106.673757, 16.033334)"><g><path d="M 12.234375 -11.8125 L 12.234375 0 L 9.5 0 L 9.5 -4.84375 L 4.140625 -4.84375 L 4.140625 0 L 1.40625 0 L 1.40625 -11.8125 L 4.140625 -11.8125 L 4.140625 -7.15625 L 9.5 -7.15625 L 9.5 -11.8125 Z M 12.234375 -11.8125 "/></g></g></g></g></g></g></g></g></svg>
